<?xml version="1.0" encoding="utf-8"?>
<!-- Generator: Adobe Illustrator 16.0.0, SVG Export Plug-In . SVG Version: 6.00 Build 0)  -->
<!DOCTYPE svg PUBLIC "-//W3C//DTD SVG 1.1//EN" "http://www.w3.org/Graphics/SVG/1.1/DTD/svg11.dtd">
<svg version="1.1" id="Calque_1" xmlns="http://www.w3.org/2000/svg" xmlns:xlink="http://www.w3.org/1999/xlink" x="0px" y="0px"
	 width="301.5px" height="543.001px" viewBox="0 0 301.5 543.001" enable-background="new 0 0 301.5 543.001" xml:space="preserve">
<g>
	<defs>
		<rect id="SVGID_1_" width="301.5" height="543.001"/>
	</defs>
	<clipPath id="SVGID_2_">
		<use xlink:href="#SVGID_1_"  overflow="visible"/>
	</clipPath>
	
		<rect opacity="0" clip-path="url(#SVGID_2_)" fill-rule="evenodd" clip-rule="evenodd" fill="#FFFFFF" width="301.5" height="543.001"/>
</g>
<g>
	<defs>
		<path id="SVGID_3_" d="M1.457,447.443c0-4.491,3.641-8.133,8.131-8.133h281.377c4.49,0,8.129,3.642,8.129,8.133v86.039
			c0,4.491-3.639,8.13-8.129,8.13H9.588c-4.49,0-8.131-3.639-8.131-8.13V447.443z"/>
	</defs>
	<clipPath id="SVGID_4_">
		<use xlink:href="#SVGID_3_"  overflow="visible"/>
	</clipPath>
	<g clip-path="url(#SVGID_4_)">
		<defs>
			<rect id="SVGID_5_" width="301.5" height="543.001"/>
		</defs>
		<clipPath id="SVGID_6_">
			<use xlink:href="#SVGID_5_"  overflow="visible"/>
		</clipPath>
		<g clip-path="url(#SVGID_6_)">
			<g>
				<defs>
					<rect id="SVGID_7_" width="301.5" height="543"/>
				</defs>
				<clipPath id="SVGID_8_">
					<use xlink:href="#SVGID_7_"  overflow="visible"/>
				</clipPath>
				<g clip-path="url(#SVGID_8_)">
					
						<image overflow="visible" width="1257" height="2263" xlink:href="C390D26EE2114461.jpg"  transform="matrix(0.24 0 0 0.24 0 0)">
					</image>
				</g>
			</g>
		</g>
	</g>
</g>
<g>
	<defs>
		<rect id="SVGID_9_" width="301.5" height="543.001"/>
	</defs>
	<clipPath id="SVGID_10_">
		<use xlink:href="#SVGID_9_"  overflow="visible"/>
	</clipPath>
	
		<path clip-path="url(#SVGID_10_)" fill="none" stroke="#6C6C6C" stroke-width="1.5024" stroke-linejoin="round" stroke-miterlimit="10" stroke-dasharray="3.185,2.3888" d="
		M1.457,447.443c0-4.491,3.641-8.133,8.131-8.133h281.377c4.49,0,8.129,3.642,8.129,8.133v86.039c0,4.491-3.639,8.13-8.129,8.13
		H9.588c-4.49,0-8.131-3.639-8.131-8.13V447.443z"/>
</g>
<g>
	<defs>
		<path id="SVGID_11_" d="M1.457,25.397c0-13.064,10.592-23.657,23.657-23.657H275.44c13.064,0,23.654,10.593,23.654,23.657v375.587
			c0,13.066-10.59,23.657-23.654,23.657H25.114c-13.065,0-23.657-10.591-23.657-23.657V25.397z"/>
	</defs>
	<clipPath id="SVGID_12_">
		<use xlink:href="#SVGID_11_"  overflow="visible"/>
	</clipPath>
	<g clip-path="url(#SVGID_12_)">
		<defs>
			<rect id="SVGID_13_" width="301.5" height="543.001"/>
		</defs>
		<clipPath id="SVGID_14_">
			<use xlink:href="#SVGID_13_"  overflow="visible"/>
		</clipPath>
		<g clip-path="url(#SVGID_14_)">
			<g>
				<defs>
					<rect id="SVGID_15_" width="301.5" height="543"/>
				</defs>
				<clipPath id="SVGID_16_">
					<use xlink:href="#SVGID_15_"  overflow="visible"/>
				</clipPath>
				<g clip-path="url(#SVGID_16_)">
					
						<image overflow="visible" width="1257" height="2263" xlink:href="C390D26EE2114467.jpg"  transform="matrix(0.24 0 0 0.24 0 0)">
					</image>
				</g>
			</g>
		</g>
	</g>
</g>
<g>
	<defs>
		<rect id="SVGID_17_" width="301.5" height="543.001"/>
	</defs>
	<clipPath id="SVGID_18_">
		<use xlink:href="#SVGID_17_"  overflow="visible"/>
	</clipPath>
	
		<path clip-path="url(#SVGID_18_)" fill="none" stroke="#EBBA13" stroke-width="1.5024" stroke-linejoin="round" stroke-miterlimit="10" stroke-dasharray="3.185,2.3888" d="
		M1.457,25.397c0-13.064,10.592-23.657,23.657-23.657H275.44c13.064,0,23.654,10.593,23.654,23.657v375.587
		c0,13.066-10.59,23.657-23.654,23.657H25.114c-13.065,0-23.657-10.591-23.657-23.657V25.397z"/>
	<path clip-path="url(#SVGID_18_)" fill-rule="evenodd" clip-rule="evenodd" fill="#707174" d="M8.389,476.02
		c0-4.116,3.338-7.456,7.454-7.456h54.271c4.117,0,7.455,3.34,7.455,7.456v36.199c0,4.116-3.338,7.456-7.455,7.456H15.843
		c-4.116,0-7.454-3.34-7.454-7.456V476.02z"/>
	<g clip-path="url(#SVGID_18_)">
		<text transform="matrix(1 0 0 1 22.7656 500.4189)" fill="#FFFFFF" font-family="'ArialMT'" font-size="15.75">HTTP</text>
	</g>
	<g clip-path="url(#SVGID_18_)">
		<text transform="matrix(1 0 0 1 63.8867 500.4189)" font-family="'ArialMT'" font-size="27"> </text>
	</g>
	<path clip-path="url(#SVGID_18_)" fill-rule="evenodd" clip-rule="evenodd" fill="#EBBA13" d="M17.02,224.865
		c0-6.095,4.94-11.036,11.036-11.036h244.4c6.094,0,11.035,4.941,11.035,11.036v129.596c0,6.097-4.941,11.036-11.035,11.036h-244.4
		c-6.096,0-11.036-4.939-11.036-11.036V224.865z"/>
	<g clip-path="url(#SVGID_18_)">
		<text transform="matrix(1 0 0 1 93.3569 238.1265)"><tspan x="0" y="0" fill="#FFFFFF" font-family="'ArialMT'" font-size="15.75">M3D</tspan><tspan x="33.253" y="0" fill="#FFFFFF" font-family="'ArialMT'" font-size="15.75">A</tspan><tspan x="42.892" y="0" fill="#FFFFFF" font-family="'ArialMT'" font-size="15.75"> </tspan><tspan x="46.985" y="0" fill="#FFFFFF" font-family="'ArialMT'" font-size="15.75">T</tspan><tspan x="56.022" y="0" fill="#FFFFFF" font-family="'ArialMT'" font-size="15.75">ransport</tspan></text>
	</g>
	<g clip-path="url(#SVGID_18_)">
		<text transform="matrix(1 0 0 1 207.1519 238.1265)" font-family="'ArialMT'" font-size="27"> </text>
	</g>
	<path clip-path="url(#SVGID_18_)" fill-rule="evenodd" clip-rule="evenodd" fill="#ED533E" d="M17.02,50.911
		c0-6.28,5.091-11.37,11.371-11.37h243.731c6.277,0,11.369,5.09,11.369,11.37v141.642c0,6.279-5.092,11.37-11.369,11.37H28.391
		c-6.28,0-11.371-5.091-11.371-11.37V50.911z"/>
	<g clip-path="url(#SVGID_18_)">
		<text transform="matrix(1 0 0 1 98.1807 63.936)"><tspan x="0" y="0" fill="#FFFFFF" font-family="'ArialMT'" font-size="15.75">M3D</tspan><tspan x="33.253" y="0" fill="#FFFFFF" font-family="'ArialMT'" font-size="15.75">A</tspan><tspan x="42.892" y="0" fill="#FFFFFF" font-family="'ArialMT'" font-size="15.75"> Payload</tspan></text>
	</g>
	<g clip-path="url(#SVGID_18_)">
		<text transform="matrix(1 0 0 1 202.3633 63.936)" font-family="'ArialMT'" font-size="27"> </text>
	</g>
	<g clip-path="url(#SVGID_18_)">
		<text transform="matrix(1 0 0 1 121.3672 29.7993)" fill="#5D5E61" font-family="'ArialMT'" font-size="21">M3DA</text>
	</g>
	<g clip-path="url(#SVGID_18_)">
		<text transform="matrix(1 0 0 1 179.7119 29.7993)" font-family="'ArialMT'" font-size="27"> </text>
	</g>
	<path clip-path="url(#SVGID_18_)" fill-rule="evenodd" clip-rule="evenodd" fill="#B0A930" d="M24.546,76.508
		c0-2.1,1.701-3.802,3.8-3.802h243.649c2.098,0,3.801,1.702,3.801,3.802v36.193c0,2.099-1.703,3.801-3.801,3.801H28.346
		c-2.099,0-3.8-1.702-3.8-3.801V76.508z"/>
	<path clip-path="url(#SVGID_18_)" fill="none" stroke="#898323" stroke-linejoin="round" stroke-miterlimit="10" d="M24.546,76.508
		c0-2.1,1.701-3.802,3.8-3.802h243.649c2.098,0,3.801,1.702,3.801,3.802v36.193c0,2.099-1.703,3.801-3.801,3.801H28.346
		c-2.099,0-3.8-1.702-3.8-3.801V76.508z"/>
	<g clip-path="url(#SVGID_18_)">
		<text transform="matrix(1 0 0 1 118.791 92.5034)" fill="#5D5E61" font-family="'Arial-BoldMT'" font-size="15">Message</text>
	</g>
	<g clip-path="url(#SVGID_18_)">
		<text transform="matrix(1 0 0 1 182.1606 92.5034)" font-family="'ArialMT'" font-size="27"> </text>
	</g>
	<g clip-path="url(#SVGID_18_)">
		<text transform="matrix(1 0 0 1 36.2881 109.0034)"><tspan x="0" y="0" fill="#5D5E61" font-family="'Arial-ItalicMT'" font-size="13.5">Command/Event/</tspan><tspan x="104.295" y="0" fill="#5D5E61" font-family="'Arial-ItalicMT'" font-size="13.5">T</tspan><tspan x="112.434" y="0" fill="#5D5E61" font-family="'Arial-ItalicMT'" font-size="13.5">ime stamped data</tspan></text>
	</g>
	<g clip-path="url(#SVGID_18_)">
		<text transform="matrix(1 0 0 1 256.02 109.0034)" font-family="'ArialMT'" font-size="27"> </text>
	</g>
	<path clip-path="url(#SVGID_18_)" fill-rule="evenodd" clip-rule="evenodd" fill="#B0A930" d="M24.546,127.658
		c0-2.099,1.701-3.801,3.8-3.801h243.649c2.098,0,3.801,1.702,3.801,3.801v36.193c0,2.1-1.703,3.802-3.801,3.802H28.346
		c-2.099,0-3.8-1.702-3.8-3.802V127.658z"/>
	<path clip-path="url(#SVGID_18_)" fill="none" stroke="#898323" stroke-linejoin="round" stroke-miterlimit="10" d="
		M24.546,127.658c0-2.099,1.701-3.801,3.8-3.801h243.649c2.098,0,3.801,1.702,3.801,3.801v36.193c0,2.1-1.703,3.802-3.801,3.802
		H28.346c-2.099,0-3.8-1.702-3.8-3.802V127.658z"/>
	<g clip-path="url(#SVGID_18_)">
		<text transform="matrix(1 0 0 1 118.791 143.6558)" fill="#5D5E61" font-family="'Arial-BoldMT'" font-size="15">Message</text>
	</g>
	<g clip-path="url(#SVGID_18_)">
		<text transform="matrix(1 0 0 1 182.1606 143.6558)" font-family="'ArialMT'" font-size="27"> </text>
	</g>
	<g clip-path="url(#SVGID_18_)">
		<text transform="matrix(1 0 0 1 36.2881 160.1558)"><tspan x="0" y="0" fill="#5D5E61" font-family="'Arial-ItalicMT'" font-size="13.5">Command/Event/</tspan><tspan x="104.295" y="0" fill="#5D5E61" font-family="'Arial-ItalicMT'" font-size="13.5">T</tspan><tspan x="112.434" y="0" fill="#5D5E61" font-family="'Arial-ItalicMT'" font-size="13.5">ime stamped data</tspan></text>
	</g>
	<g clip-path="url(#SVGID_18_)">
		<text transform="matrix(1 0 0 1 256.02 160.1558)" font-family="'ArialMT'" font-size="27"> </text>
	</g>
	<path clip-path="url(#SVGID_18_)" fill-rule="evenodd" clip-rule="evenodd" fill="#B0A930" d="M24.546,176.952
		c0-1.051,0.851-1.9,1.9-1.9h247.447c1.051,0,1.902,0.85,1.902,1.9v18.097c0,1.05-0.852,1.899-1.902,1.899H26.446
		c-1.05,0-1.9-0.85-1.9-1.899V176.952z"/>
	<path clip-path="url(#SVGID_18_)" fill="none" stroke="#898323" stroke-linejoin="round" stroke-miterlimit="10" d="
		M24.546,176.952c0-1.051,0.851-1.9,1.9-1.9h247.447c1.051,0,1.902,0.85,1.902,1.9v18.097c0,1.05-0.852,1.899-1.902,1.899H26.446
		c-1.05,0-1.9-0.85-1.9-1.899V176.952z"/>
	<path clip-path="url(#SVGID_18_)" fill="#5D5E61" d="M143.582,193.2v-1.802h1.803v1.802H143.582z M149.586,193.2v-1.802h1.801
		v1.802H149.586z M155.58,193.2v-1.802h1.811v1.802H155.58z"/>
	<g clip-path="url(#SVGID_18_)">
		<text transform="matrix(1 0 0 1 159.481 193.1997)" font-family="'ArialMT'" font-size="27"> </text>
	</g>
	<path clip-path="url(#SVGID_18_)" fill-rule="evenodd" clip-rule="evenodd" fill="#B0A930" d="M25.779,252.471
		c0-5.186,4.202-9.389,9.387-9.389h232.475c5.184,0,9.387,4.203,9.387,9.389v89.396c0,5.186-4.203,9.387-9.387,9.387H35.166
		c-5.185,0-9.387-4.201-9.387-9.387V252.471z"/>
	<path clip-path="url(#SVGID_18_)" fill="none" stroke="#898323" stroke-linejoin="round" stroke-miterlimit="10" d="
		M25.779,252.471c0-5.186,4.202-9.389,9.387-9.389h232.475c5.184,0,9.387,4.203,9.387,9.389v89.396c0,5.183-4.203,9.387-9.387,9.387
		H35.166c-5.185,0-9.387-4.204-9.387-9.387V252.471z"/>
	<g clip-path="url(#SVGID_18_)">
		<text transform="matrix(1 0 0 1 122.1504 264.4673)" fill="#5D5E61" font-family="'Arial-BoldMT'" font-size="15">Headers</text>
	</g>
	<g clip-path="url(#SVGID_18_)">
		<text transform="matrix(1 0 0 1 181.3525 264.4673)" font-family="'ArialMT'" font-size="27"> </text>
	</g>
	<g clip-path="url(#SVGID_18_)">
		<text transform="matrix(1 0 0 1 39.1572 280.9673)" fill="#5D5E61" font-family="'ArialMT'" font-size="13.5">- Device /Server Identification</text>
	</g>
	<g clip-path="url(#SVGID_18_)">
		<text transform="matrix(1 0 0 1 215.4814 280.9673)" font-family="'ArialMT'" font-size="27"> </text>
	</g>
	<g clip-path="url(#SVGID_18_)">
		<text transform="matrix(1 0 0 1 39.1572 295.9673)" fill="#5D5E61" font-family="'ArialMT'" font-size="13.5">- Security</text>
	</g>
	<g clip-path="url(#SVGID_18_)">
		<text transform="matrix(1 0 0 1 96.1699 295.9673)" font-family="'ArialMT'" font-size="27"> </text>
	</g>
	<g clip-path="url(#SVGID_18_)">
		<text transform="matrix(1 0 0 1 39.1572 310.9673)"><tspan x="0" y="0" fill="#5D5E61" font-family="'Arial-ItalicMT'" font-size="12">auth, ciphe</tspan><tspan x="58.711" y="0" fill="#5D5E61" font-family="'Arial-ItalicMT'" font-size="12">r</tspan><tspan x="62.047" y="0" fill="#5D5E61" font-family="'Arial-ItalicMT'" font-size="12">, hmac, nonce</tspan></text>
	</g>
	<path clip-path="url(#SVGID_18_)" fill="#5D5E61" d="M178.303,310.968l0.252-1.201h1.201l-0.258,1.201H178.303z M182.311,310.968
		l0.252-1.201h1.201l-0.252,1.201H182.311z M186.325,310.968l0.252-1.201h1.195l-0.252,1.201H186.325z"/>
	<g clip-path="url(#SVGID_18_)">
		<text transform="matrix(1 0 0 1 188.5771 310.9673)" font-family="'ArialMT'" font-size="27"> </text>
	</g>
	<g clip-path="url(#SVGID_18_)">
		<text transform="matrix(1 0 0 1 39.1572 327.4678)" fill="#5D5E61" font-family="'ArialMT'" font-size="13.5">- Compression</text>
	</g>
	<g clip-path="url(#SVGID_18_)">
		<text transform="matrix(1 0 0 1 126.9336 327.4678)" fill="#5D5E61" font-family="'Arial-ItalicMT'" font-size="13.5"> </text>
	</g>
	<g clip-path="url(#SVGID_18_)">
		<text transform="matrix(1 0 0 1 130.6846 327.4678)" font-family="'ArialMT'" font-size="27"> </text>
	</g>
	<g clip-path="url(#SVGID_18_)">
		<text transform="matrix(1 0 0 1 39.1572 340.9678)" fill="#5D5E61" font-family="'Arial-ItalicMT'" font-size="12">algo, dict selection, </text>
	</g>
	<path clip-path="url(#SVGID_18_)" fill="#5D5E61" d="M146.276,340.967l0.252-1.201h1.201l-0.258,1.201H146.276z M150.284,340.967
		l0.252-1.201h1.201l-0.252,1.201H150.284z M154.298,340.967l0.252-1.201h1.195l-0.252,1.201H154.298z"/>
	<g clip-path="url(#SVGID_18_)">
		<text transform="matrix(1 0 0 1 156.5498 340.9678)" font-family="'ArialMT'" font-size="27"> </text>
	</g>
	<path clip-path="url(#SVGID_18_)" fill-rule="evenodd" clip-rule="evenodd" fill="#707174" d="M84.499,476.02
		c0-4.116,3.337-7.456,7.454-7.456h47.34c4.117,0,7.454,3.34,7.454,7.456v36.199c0,4.116-3.337,7.456-7.454,7.456h-47.34
		c-4.117,0-7.454-3.34-7.454-7.456V476.02z"/>
	<g clip-path="url(#SVGID_18_)">
		<text transform="matrix(1 0 0 1 100.2178 500.4189)" fill="#FFFFFF" font-family="'ArialMT'" font-size="15.75">TCP</text>
	</g>
	<g clip-path="url(#SVGID_18_)">
		<text transform="matrix(1 0 0 1 131.7178 500.4189)" font-family="'ArialMT'" font-size="27"> </text>
	</g>
	<path clip-path="url(#SVGID_18_)" fill-rule="evenodd" clip-rule="evenodd" fill="#707174" d="M153.764,476.02
		c0-4.116,3.336-7.456,7.454-7.456h47.34c4.117,0,7.455,3.34,7.455,7.456v36.199c0,4.116-3.338,7.456-7.455,7.456h-47.34
		c-4.117,0-7.454-3.34-7.454-7.456V476.02z"/>
	<g clip-path="url(#SVGID_18_)">
		<text transform="matrix(1 0 0 1 168.6045 500.4189)" fill="#FFFFFF" font-family="'ArialMT'" font-size="15.75">UDP</text>
	</g>
	<g clip-path="url(#SVGID_18_)">
		<text transform="matrix(1 0 0 1 201.8584 500.4189)" font-family="'ArialMT'" font-size="27"> </text>
	</g>
	<path clip-path="url(#SVGID_18_)" fill-rule="evenodd" clip-rule="evenodd" fill="#707174" d="M222.985,476.02
		c0-4.116,3.338-7.456,7.455-7.456h54.27c4.117,0,7.455,3.34,7.455,7.456v36.199c0,4.116-3.338,7.456-7.455,7.456h-54.27
		c-4.117,0-7.455-3.34-7.455-7.456V476.02z"/>
	<g clip-path="url(#SVGID_18_)">
		<text transform="matrix(1 0 0 1 237.793 500.4189)" fill="#FFFFFF" font-family="'ArialMT'" font-size="15.75">SMS*</text>
	</g>
	<g clip-path="url(#SVGID_18_)">
		<text transform="matrix(1 0 0 1 278.0527 500.4189)" font-family="'ArialMT'" font-size="27"> </text>
	</g>
	<g clip-path="url(#SVGID_18_)">
		<text transform="matrix(1 0 0 1 106.6924 457.7773)"><tspan x="0" y="0" fill="#5D5E61" font-family="'ArialMT'" font-size="18">T</tspan><tspan x="10.329" y="0" fill="#5D5E61" font-family="'ArialMT'" font-size="18">ransport</tspan></text>
	</g>
	<g clip-path="url(#SVGID_18_)">
		<text transform="matrix(1 0 0 1 183.0518 457.7773)" font-family="'ArialMT'" font-size="27"> </text>
	</g>
	<path clip-path="url(#SVGID_18_)" fill-rule="evenodd" clip-rule="evenodd" fill="#B0A930" d="M16.935,386.187
		c0-4.617,3.741-8.358,8.358-8.358h249.84c4.615,0,8.357,3.741,8.357,8.358v20.912c0,4.617-3.742,8.358-8.357,8.358H25.293
		c-4.617,0-8.358-3.741-8.358-8.358V386.187z"/>
	<path clip-path="url(#SVGID_18_)" fill="none" stroke="#898323" stroke-linejoin="round" stroke-miterlimit="10" d="
		M16.935,386.187c0-4.617,3.741-8.358,8.358-8.358h249.84c4.615,0,8.357,3.741,8.357,8.358v20.912c0,4.617-3.742,8.358-8.357,8.358
		H25.293c-4.617,0-8.358-3.741-8.358-8.358V386.187z"/>
	<g clip-path="url(#SVGID_18_)">
		<text transform="matrix(1 0 0 1 91.126 402.9424)" fill="#5D5E61" font-family="'ArialMT'" font-size="15.75">Bysant Serializer</text>
	</g>
	<g clip-path="url(#SVGID_18_)">
		<text transform="matrix(1 0 0 1 209.2974 402.9424)" font-family="'ArialMT'" font-size="27"> </text>
	</g>
</g>
</svg>
