<?xml version="1.0" encoding="utf-8"?>
<!-- Generator: Adobe Illustrator 16.0.0, SVG Export Plug-In . SVG Version: 6.00 Build 0)  -->
<!DOCTYPE svg PUBLIC "-//W3C//DTD SVG 1.1//EN" "http://www.w3.org/Graphics/SVG/1.1/DTD/svg11.dtd">
<svg version="1.1" id="Calque_1" xmlns="http://www.w3.org/2000/svg" xmlns:xlink="http://www.w3.org/1999/xlink" x="0px" y="0px"
	 width="360.5px" height="198px" viewBox="8.75 -0.25 360.5 198" enable-background="new 8.75 -0.25 360.5 198"
	 xml:space="preserve">
<path opacity="0.8" fill="#FFFFFF" stroke="#000000" stroke-width="0.5" stroke-miterlimit="10" d="M369,133.656
	c0,1.57-1.886,2.844-4.211,2.844H13.21c-2.325,0-4.21-1.273-4.21-2.844V2.844C9,1.273,10.885,0,13.21,0h351.579
	C367.114,0,369,1.273,369,2.844V133.656z"/>
<g>
	<g>
		<text transform="matrix(1 0 0 1 11.7432 28.4395)" fill="#5D5E61" font-family="'Arial-BoldMT'" font-size="20">T</text>
		<text transform="matrix(1 0 0 1 23.6001 28.4395)" fill="#5D5E61" font-family="'Arial-BoldMT'" font-size="20">icket ID:</text>
	</g>
</g>
<g>
	<g>
		<text transform="matrix(1 0 0 1 111.6865 28.4395)" fill="#707174" font-family="'ArialMT'" font-size="20"> </text>
	</g>
</g>
<g>
	<g>
		<text transform="matrix(1 0 0 1 117.2432 28.4395)" fill="#5D5E61" font-family="'CourierNewPSMT'" font-size="20">23424 </text>
	</g>
</g>
<g>
	<g>
		<text transform="matrix(1 -0.0019 0.0019 1 11.7524 61.5049)" fill="#5D5E61" font-family="'Arial-BoldMT'" font-size="20">Status:</text>
	</g>
</g>
<g>
	<g>
		<text transform="matrix(1 0 0 1 117.2432 61.4395)" fill="#5D5E61" font-family="'CourierNewPSMT'" font-size="20">@sys.commands.Reboot</text>
	</g>
</g>
<g>
	<g>
		<text transform="matrix(1 0 0 1 117.2432 94.4395)" fill="#5D5E61" font-family="'CourierNewPSMT'" font-size="20">`An error message`</text>
	</g>
</g>
<g>
	<g>
		<text transform="matrix(1 0 0 1 11.7524 94.4395)" fill="#5D5E61" font-family="'Arial-BoldMT'" font-size="20">Data:</text>
	</g>
</g>
</svg>
