<?xml version="1.0" encoding="utf-8"?>
<!-- Generator: Adobe Illustrator 16.0.0, SVG Export Plug-In . SVG Version: 6.00 Build 0)  -->
<!DOCTYPE svg PUBLIC "-//W3C//DTD SVG 1.1//EN" "http://www.w3.org/Graphics/SVG/1.1/DTD/svg11.dtd">
<svg version="1.1" id="Calque_1" xmlns="http://www.w3.org/2000/svg" xmlns:xlink="http://www.w3.org/1999/xlink" x="0px" y="0px"
	 width="645px" height="200px" viewBox="0 0 645 200" enable-background="new 0 0 645 200" xml:space="preserve">
<path opacity="0.8" fill="#FFFFFF" stroke="#000000" stroke-width="0.5" stroke-miterlimit="10" d="M351,193.386
	c0,2.271-1.791,4.114-4,4.114H13c-2.209,0-4-1.843-4-4.114V4.115C9,1.842,10.791,0,13,0h334c2.209,0,4,1.842,4,4.115V193.386z"/>
<g>
	<g>
		<text transform="matrix(1 0 0 1 11.7432 28.4395)" fill="#5D5E61" font-family="'Arial-BoldMT'" font-size="20">T</text>
		<text transform="matrix(1 0 0 1 23.6001 28.4395)" fill="#5D5E61" font-family="'Arial-BoldMT'" font-size="20">icket ID:</text>
	</g>
</g>
<g>
	<g>
		<text transform="matrix(1 0 0 1 111.6865 28.4395)" fill="#707174" font-family="'ArialMT'" font-size="20"> </text>
	</g>
</g>
<g>
	<g>
		<text transform="matrix(1 0 0 1 117.2432 28.4395)" fill="#5D5E61" font-family="'CourierNewPSMT'" font-size="20">23424 </text>
	</g>
</g>
<g>
	<g>
		<text transform="matrix(1 0 0 1 11.7432 61.4395)" fill="#5D5E61" font-family="'Arial-BoldMT'" font-size="20">Path:</text>
	</g>
</g>
<g>
	<g>
		<text transform="matrix(1 0 0 1 111.6865 61.4395)" fill="#707174" font-family="'ArialMT'" font-size="20"> </text>
	</g>
</g>
<g>
	<g>
		<text transform="matrix(1 0 0 1 117.2432 61.4395)" fill="#5D5E61" font-family="'CourierNewPSMT'" font-size="20">my.car.position</text>
	</g>
</g>
<g>
	<g>
		<text transform="matrix(1 0 0 1 297.2725 61.4395)" fill="#5D5E61" font-family="'CourierNewPSMT'" font-size="20"> </text>
	</g>
</g>
<g>
	<g>
		<text transform="matrix(1 0 0 1 11.7432 94.4395)" fill="#5D5E61" font-family="'Arial-BoldMT'" font-size="20">Body:</text>
	</g>
</g>
<g>
	<g>
		<text transform="matrix(1 0 0 1 111.6865 94.4395)" fill="#707174" font-family="'ArialMT'" font-size="20"> </text>
	</g>
</g>
<g>
	<g>
		<text transform="matrix(1 0 0 1 117.2432 94.4395)" fill="#5D5E61" font-family="'CourierNewPSMT'" font-size="20"> </text>
	</g>
</g>
<g>
	
		<line fill="none" stroke="#ED533E" stroke-width="2" stroke-linejoin="round" stroke-miterlimit="10" x1="382.807" y1="24.891" x2="274.909" y2="24.891"/>
</g>
<g>
	<path fill="#ED533E" d="M272.924,24.891l7.481,4.363c0.477,0.278,1.089,0.117,1.368-0.359c0.278-0.478,0.117-1.09-0.36-1.368
		l-4.52-2.636l4.52-2.637c0.477-0.278,0.638-0.891,0.36-1.367l0,0c-0.278-0.478-0.891-0.639-1.368-0.36L272.924,24.891z"/>
</g>
<g>
	<path fill="none" stroke="#ED533E" stroke-width="2" stroke-linejoin="round" stroke-miterlimit="10" d="M371.816,82.036
		c3.944,0,7.144,0.532,7.144,1.19v51.467c0,0.658,3.197,1.19,7.142,1.19c-3.943,0-7.142,0.533-7.142,1.19v51.468
		c0,0.658-3.198,1.19-7.144,1.19"/>
</g>
<g>
	<g>
		<text transform="matrix(1 0 0 1 396.5986 30.0059)" fill="#FFFFFF" font-family="'ArialMT'" font-size="18">if ≠ 0 </text>
	</g>
</g>
<g>
	<polygon fill="#FFFFFF" points="447.688,32.006 442.784,32.006 447.553,27.233 438.012,27.233 438.012,23.762 447.553,23.762 
		442.784,18.989 447.688,18.989 454.192,25.497 	"/>
</g>
<g>
	<g>
		<text transform="matrix(1 0 0 1 462.7041 30.0059)" fill="#FFFFFF" font-family="'ArialMT'" font-size="18"> request acknowledge</text>
	</g>
</g>
<g>
	<g>
		<text transform="matrix(1 0 0 1 634.8174 30.0059)" fill="#FFFFFF" font-family="'ArialMT'" font-size="18"> </text>
	</g>
</g>
<g>
	<g>
		<text transform="matrix(1 0 0 1 396.5986 139.9014)" fill="#FFFFFF" font-family="'ArialMT'" font-size="18">see </text>
	</g>
</g>
<g>
	<g>
		<text transform="matrix(1 0 0 1 430.6211 139.9014)" fill="#FFFFFF" font-family="'ArialMT'" font-size="18">Serialization</text>
	</g>
</g>
<g>
	<g>
		<text transform="matrix(1 0 0 1 532.6719 139.9014)" fill="#FFFFFF" font-family="'ArialMT'" font-size="18"> section </text>
	</g>
</g>
<g>
	<rect x="109.429" y="77.641" fill="#F8D8D6" width="141.519" height="28.8"/>
</g>
<g>
	<rect x="250.948" y="77.641" fill="#F8D8D6" width="78.015" height="28.8"/>
</g>
<g>
	<rect x="109.429" y="106.439" fill="#FBEDED" width="141.519" height="29.201"/>
</g>
<g>
	<rect x="250.948" y="106.439" fill="#FBEDED" width="78.015" height="29.201"/>
</g>
<g>
	<rect x="109.429" y="135.641" fill="#F8D8D6" width="141.519" height="29.199"/>
</g>
<g>
	<rect x="250.948" y="135.641" fill="#F8D8D6" width="78.015" height="29.199"/>
</g>
<g>
	<rect x="109.429" y="164.84" fill="#FBEDED" width="141.519" height="29.2"/>
</g>
<g>
	<rect x="250.948" y="164.84" fill="#FBEDED" width="78.015" height="29.2"/>
</g>
<g>
	
		<line fill="none" stroke="#FFFFFF" stroke-linejoin="round" stroke-miterlimit="10" x1="250.948" y1="77.141" x2="250.948" y2="194.54"/>
</g>
<g>
	
		<line fill="none" stroke="#FFFFFF" stroke-linejoin="round" stroke-miterlimit="10" x1="108.929" y1="106.439" x2="329.463" y2="106.439"/>
</g>
<g>
	
		<line fill="none" stroke="#FFFFFF" stroke-linejoin="round" stroke-miterlimit="10" x1="108.929" y1="135.641" x2="329.463" y2="135.641"/>
</g>
<g>
	
		<line fill="none" stroke="#FFFFFF" stroke-linejoin="round" stroke-miterlimit="10" x1="108.929" y1="164.84" x2="329.463" y2="164.84"/>
</g>
<g>
	
		<line fill="none" stroke="#FFFFFF" stroke-linejoin="round" stroke-miterlimit="10" x1="109.429" y1="77.141" x2="109.429" y2="194.54"/>
</g>
<g>
	
		<line fill="none" stroke="#FFFFFF" stroke-linejoin="round" stroke-miterlimit="10" x1="328.963" y1="77.141" x2="328.963" y2="194.54"/>
</g>
<g>
	
		<line fill="none" stroke="#FFFFFF" stroke-linejoin="round" stroke-miterlimit="10" x1="108.929" y1="77.641" x2="329.463" y2="77.641"/>
</g>
<g>
	<g>
		<text transform="matrix(1 0 0 1 116.6289 99.2402)" fill="#5D5E61" font-family="'CourierNewPSMT'" font-size="18">latitude </text>
	</g>
</g>
<g>
	<g>
		<text transform="matrix(1 0 0 1 258.1475 99.2402)" fill="#5D5E61" font-family="'CourierNewPSMT'" font-size="18">10.0 </text>
	</g>
</g>
<g>
	<g>
		<text transform="matrix(1 0 0 1 116.6289 128.04)" fill="#5D5E61" font-family="'CourierNewPSMT'" font-size="18">longitude </text>
	</g>
</g>
<g>
	<g>
		<text transform="matrix(1 0 0 1 258.1475 128.04)" fill="#5D5E61" font-family="'CourierNewPSMT'" font-size="18">32.5 </text>
	</g>
</g>
<g>
	<g>
		<text transform="matrix(1 0 0 1 116.6289 157.2402)" fill="#5D5E61" font-family="'CourierNewPSMT'" font-size="18">speed </text>
	</g>
</g>
<g>
	<g>
		<text transform="matrix(1 0 0 1 258.1475 157.2402)" fill="#5D5E61" font-family="'CourierNewPSMT'" font-size="18">33 </text>
	</g>
</g>
<g>
	<g>
		<text transform="matrix(1 0 0 1 116.6289 186.4404)" fill="#5D5E61" font-family="'CourierNewPSMT'" font-size="18">altitude </text>
	</g>
</g>
<g>
	<g>
		<text transform="matrix(1 0 0 1 259.1475 186.2402)" fill="#5D5E61" font-family="'CourierNewPSMT'" font-size="18">3540 </text>
	</g>
</g>
</svg>
