<?xml version="1.0" encoding="utf-8"?>
<!-- Generator: Adobe Illustrator 16.0.0, SVG Export Plug-In . SVG Version: 6.00 Build 0)  -->
<!DOCTYPE svg PUBLIC "-//W3C//DTD SVG 1.1//EN" "http://www.w3.org/Graphics/SVG/1.1/DTD/svg11.dtd">
<svg version="1.1" id="Calque_1" xmlns="http://www.w3.org/2000/svg" xmlns:xlink="http://www.w3.org/1999/xlink" x="0px" y="0px"
	 width="360.5px" height="198px" viewBox="8.75 -0.25 360.5 198" enable-background="new 8.75 -0.25 360.5 198"
	 xml:space="preserve">
<path opacity="0.8" fill="#FFFFFF" stroke="#000000" stroke-width="0.5" stroke-miterlimit="10" d="M369,193.386
	c0,2.271-1.886,4.114-4.211,4.114H13.21c-2.325,0-4.21-1.843-4.21-4.114V4.115C9,1.842,10.885,0,13.21,0h351.579
	C367.114,0,369,1.842,369,4.115V193.386z"/>
<g>
	<g>
		<text transform="matrix(1 0 0 1 11.7432 28.4395)" fill="#5D5E61" font-family="'Arial-BoldMT'" font-size="20">T</text>
		<text transform="matrix(1 0 0 1 23.6001 28.4395)" fill="#5D5E61" font-family="'Arial-BoldMT'" font-size="20">icket ID:</text>
	</g>
</g>
<g>
	<g>
		<text transform="matrix(1 0 0 1 111.6865 28.4395)" fill="#707174" font-family="'ArialMT'" font-size="20"> </text>
	</g>
</g>
<g>
	<g>
		<text transform="matrix(1 0 0 1 117.2432 28.4395)" fill="#5D5E61" font-family="'CourierNewPSMT'" font-size="20">23424 </text>
	</g>
</g>
<g>
	<g>
		<text transform="matrix(1 0 0 1 11.7432 61.4395)" fill="#5D5E61" font-family="'Arial-BoldMT'" font-size="20">Path:</text>
	</g>
</g>
<g>
	<g>
		<text transform="matrix(1 0 0 1 111.6865 61.4395)" fill="#707174" font-family="'ArialMT'" font-size="20"> </text>
	</g>
</g>
<g>
	<g>
		<text transform="matrix(1 0 0 1 117.2432 61.4395)" fill="#5D5E61" font-family="'CourierNewPSMT'" font-size="20">@sys.commands.Reboot</text>
	</g>
</g>
<g>
	<g>
		<text transform="matrix(1 0 0 1 297.2725 61.4395)" fill="#5D5E61" font-family="'CourierNewPSMT'" font-size="20"> </text>
	</g>
</g>
<g>
	<g>
		<text transform="matrix(1 0 0 1 11.7432 94.4395)" fill="#5D5E61" font-family="'Arial-BoldMT'" font-size="20">Body:</text>
	</g>
</g>
<g>
	<g>
		<text transform="matrix(1 0 0 1 111.6865 94.4395)" fill="#707174" font-family="'ArialMT'" font-size="20"> </text>
	</g>
</g>
<g>
	<g>
		<text transform="matrix(1 0 0 1 117.2432 94.4395)" fill="#5D5E61" font-family="'CourierNewPSMT'" font-size="20"> </text>
	</g>
</g>
<g>
	<rect x="109.429" y="77.641" fill="#F8D8D6" width="141.519" height="28.8"/>
</g>
<g>
	<rect x="250.948" y="77.641" fill="#F8D8D6" width="78.015" height="28.8"/>
</g>
<g>
	
		<line fill="none" stroke="#FFFFFF" stroke-linejoin="round" stroke-miterlimit="10" x1="108.929" y1="106.439" x2="329.463" y2="106.439"/>
</g>
<g>
	
		<line fill="none" stroke="#FFFFFF" stroke-linejoin="round" stroke-miterlimit="10" x1="108.929" y1="77.641" x2="329.463" y2="77.641"/>
</g>
<g>
	<g>
		<text transform="matrix(1 0 0 1 116.6289 99.2402)" fill="#5D5E61" font-family="'CourierNewPSMT'" font-size="18">delay</text>
	</g>
</g>
<g>
	<g>
		<text transform="matrix(1 0 0 1 258.1475 99.2402)" fill="#5D5E61" font-family="'CourierNewPSMT'" font-size="18">42</text>
	</g>
</g>
</svg>
