<?xml version="1.0" encoding="utf-8"?>
<!-- Generator: Adobe Illustrator 16.0.0, SVG Export Plug-In . SVG Version: 6.00 Build 0)  -->
<!DOCTYPE svg PUBLIC "-//W3C//DTD SVG 1.1//EN" "http://www.w3.org/Graphics/SVG/1.1/DTD/svg11.dtd">
<svg version="1.1" id="Calque_1" xmlns="http://www.w3.org/2000/svg" xmlns:xlink="http://www.w3.org/1999/xlink" x="0px" y="0px"
	 width="678px" height="486px" viewBox="0 0 678 486" enable-background="new 0 0 678 486" xml:space="preserve">
<path opacity="0.5" fill="#FFFFFF" d="M678,486H0V0h678V486z"/>
<g>
	<defs>
		<rect id="SVGID_1_" width="678" height="486"/>
	</defs>
	<clipPath id="SVGID_2_">
		<use xlink:href="#SVGID_1_"  overflow="visible"/>
	</clipPath>
	<rect opacity="0" clip-path="url(#SVGID_2_)" fill-rule="evenodd" clip-rule="evenodd" fill="#FFFFFF" width="678" height="486"/>
	<path clip-path="url(#SVGID_2_)" fill-rule="evenodd" clip-rule="evenodd" fill="#1D1F33" d="M191.661,11.886
		c0,5.865,47.448,10.62,105.978,10.62c58.53,0,105.979-4.754,105.979-10.62v63.719c0,5.865-47.448,10.62-105.979,10.62
		c-58.53,0-105.978-4.754-105.978-10.62V11.886z"/>
	
		<ellipse clip-path="url(#SVGID_2_)" fill-rule="evenodd" clip-rule="evenodd" fill="#868790" cx="297.639" cy="11.886" rx="105.978" ry="10.62"/>
	
		<path clip-path="url(#SVGID_2_)" fill="none" stroke="#0F1121" stroke-width="2" stroke-linejoin="round" stroke-miterlimit="10" d="
		M403.617,11.886c0,5.865-47.448,10.62-105.979,10.62c-58.53,0-105.978-4.754-105.978-10.62s47.448-10.62,105.978-10.62
		c58.53,0,105.979,74.339,105.979,74.339c0,5.865-47.448,10.62-105.979,10.62c-58.53,0-105.978-4.754-105.978-10.62V11.886
		C191.661,11.886,403.617,6.021,403.617,11.886z"/>
	<g clip-path="url(#SVGID_2_)">
		<text transform="matrix(1 0 0 1 243.2329 58.6553)" fill="#FFFFFF" font-family="'LeagueGothic-Regular'" font-size="24">m2m.eclipse.org</text>
	</g>
	<g clip-path="url(#SVGID_2_)">
		<text transform="matrix(1 0 0 1 390.4883 58.6553)" fill="#FFFFFF" font-family="'LeagueGothic-Regular'" font-size="20"> </text>
	</g>
	<g clip-path="url(#SVGID_2_)">
		<text transform="matrix(1 0 0 1 422.4727 54.6143)" fill="#161726" font-family="'LeagueGothic-Regular'" font-size="24">M3DA server</text>
	</g>
	<g clip-path="url(#SVGID_2_)">
		<text transform="matrix(1 0 0 1 185.1113 200.5469)" fill="#161726" font-family="'LeagueGothic-Regular'" font-size="24">Raspberry Pi </text>
	</g>
	<g clip-path="url(#SVGID_2_)">
		<text transform="matrix(1 0 0 1 514.7959 205.7422)" fill="#161726" font-family="'LeagueGothic-Regular'" font-size="24">Mobile phone </text>
	</g>
</g>
<g>
	<defs>
		
			<rect id="SVGID_3_" x="135.698" y="107.486" transform="matrix(-0.9639 0.2662 -0.2662 -0.9639 335.1894 205.7054)" width="35.905" height="36.174"/>
	</defs>
	<clipPath id="SVGID_4_">
		<use xlink:href="#SVGID_3_"  overflow="visible"/>
	</clipPath>
	<g clip-path="url(#SVGID_4_)">
		<defs>
			
				<rect id="SVGID_5_" x="135.698" y="107.486" transform="matrix(-0.9639 0.2662 -0.2662 -0.9639 335.1894 205.7054)" width="35.905" height="36.174"/>
		</defs>
		<clipPath id="SVGID_6_">
			<use xlink:href="#SVGID_5_"  overflow="visible"/>
		</clipPath>
		<g clip-path="url(#SVGID_6_)">
			<defs>
				<rect id="SVGID_7_" width="678" height="486"/>
			</defs>
			<clipPath id="SVGID_8_">
				<use xlink:href="#SVGID_7_"  overflow="visible"/>
			</clipPath>
			<g clip-path="url(#SVGID_8_)">
				<defs>
					
						<rect id="SVGID_9_" x="135.699" y="107.486" transform="matrix(-0.9639 0.2662 -0.2662 -0.9639 335.1872 205.7092)" width="35.905" height="36.174"/>
				</defs>
				<clipPath id="SVGID_10_">
					<use xlink:href="#SVGID_9_"  overflow="visible"/>
				</clipPath>
				<g transform="matrix(1 0 0 1 -1.525879e-05 -1.525879e-05)" clip-path="url(#SVGID_10_)">
					
						<image overflow="visible" width="34" height="34" xlink:href="A1229FDDDABF760C.png"  transform="matrix(1.0179 -0.2812 0.2833 1.0255 131.5312 112.9189)">
					</image>
				</g>
			</g>
		</g>
	</g>
</g>
<g>
	<defs>
		
			<rect id="SVGID_11_" x="406.297" y="107.487" transform="matrix(0.9952 0.0976 -0.0976 0.9952 14.2746 -40.7905)" width="35.906" height="36.173"/>
	</defs>
	<clipPath id="SVGID_12_">
		<use xlink:href="#SVGID_11_"  overflow="visible"/>
	</clipPath>
	<g clip-path="url(#SVGID_12_)">
		<defs>
			
				<rect id="SVGID_13_" x="406.297" y="107.487" transform="matrix(0.9952 0.0976 -0.0976 0.9952 14.2746 -40.7905)" width="35.906" height="36.173"/>
		</defs>
		<clipPath id="SVGID_14_">
			<use xlink:href="#SVGID_13_"  overflow="visible"/>
		</clipPath>
		<g clip-path="url(#SVGID_14_)">
			<defs>
				<rect id="SVGID_15_" width="678" height="486"/>
			</defs>
			<clipPath id="SVGID_16_">
				<use xlink:href="#SVGID_15_"  overflow="visible"/>
			</clipPath>
			<g clip-path="url(#SVGID_16_)">
				<defs>
					
						<rect id="SVGID_17_" x="406.297" y="107.486" transform="matrix(0.9952 0.0975 -0.0975 0.9952 14.2701 -40.7794)" width="35.906" height="36.173"/>
				</defs>
				<clipPath id="SVGID_18_">
					<use xlink:href="#SVGID_17_"  overflow="visible"/>
				</clipPath>
				<g transform="matrix(1 0 7.450581e-09 1 0 0)" clip-path="url(#SVGID_18_)">
					
						<image overflow="visible" width="34" height="34" xlink:href="A1229FDDDABF7600.png"  transform="matrix(-1.051 -0.103 -0.1038 1.0588 443.8809 109.3242)">
					</image>
				</g>
			</g>
		</g>
	</g>
</g>
<g>
	<defs>
		<rect id="SVGID_19_" x="441.303" y="150.956" width="65.955" height="129.271"/>
	</defs>
	<clipPath id="SVGID_20_">
		<use xlink:href="#SVGID_19_"  overflow="visible"/>
	</clipPath>
	<g clip-path="url(#SVGID_20_)">
		<defs>
			<rect id="SVGID_21_" x="441.303" y="150.956" width="65.955" height="129.271"/>
		</defs>
		<clipPath id="SVGID_22_">
			<use xlink:href="#SVGID_21_"  overflow="visible"/>
		</clipPath>
		<g clip-path="url(#SVGID_22_)">
			<defs>
				<rect id="SVGID_23_" x="441.303" y="150.956" width="65.955" height="129.271"/>
			</defs>
			<clipPath id="SVGID_24_">
				<use xlink:href="#SVGID_23_"  overflow="visible"/>
			</clipPath>
			<g transform="matrix(1 0 0 1 0 0)" clip-path="url(#SVGID_24_)">
				
					<image overflow="visible" width="137" height="269" xlink:href="A1229FDDDABF7601.png"  transform="matrix(0.4814 0 0 0.4806 441.3027 150.9561)">
				</image>
			</g>
		</g>
	</g>
</g>
<g>
	<defs>
		<rect id="SVGID_25_" width="678" height="486"/>
	</defs>
	<clipPath id="SVGID_26_">
		<use xlink:href="#SVGID_25_"  overflow="visible"/>
	</clipPath>
	
		<line clip-path="url(#SVGID_26_)" fill="none" stroke="#1D1F33" stroke-width="2" stroke-linejoin="round" stroke-miterlimit="10" stroke-dasharray="6,2" x1="79.706" y1="346.565" x2="79.706" y2="258.223"/>
	<path clip-path="url(#SVGID_26_)" fill-rule="evenodd" clip-rule="evenodd" fill="#1D1F33" d="M79.706,348.551l4.364-7.481
		c0.278-0.477,0.117-1.089-0.36-1.367s-1.089-0.117-1.368,0.359l-2.636,4.52l-2.636-4.52c-0.278-0.477-0.891-0.638-1.368-0.359l0,0
		c-0.477,0.278-0.638,0.891-0.36,1.367L79.706,348.551z"/>
	<path clip-path="url(#SVGID_26_)" fill-rule="evenodd" clip-rule="evenodd" fill="#1D1F33" d="M79.706,256.238l-4.364,7.48
		c-0.278,0.477-0.117,1.089,0.36,1.367s1.089,0.117,1.368-0.359l2.636-4.52l2.636,4.52c0.278,0.477,0.891,0.638,1.368,0.359l0,0
		c0.477-0.278,0.638-0.891,0.36-1.367L79.706,256.238z"/>
	
		<line clip-path="url(#SVGID_26_)" fill="none" stroke="#1D1F33" stroke-width="2" stroke-linejoin="round" stroke-miterlimit="10" stroke-dasharray="6,2" x1="166.11" y1="387.431" x2="291.375" y2="387.431"/>
	<path clip-path="url(#SVGID_26_)" fill-rule="evenodd" clip-rule="evenodd" fill="#1D1F33" d="M164.125,387.431l7.481-4.363
		c0.477-0.278,1.089-0.118,1.368,0.359c0.278,0.477,0.117,1.089-0.36,1.367l-4.52,2.637l4.52,2.636
		c0.477,0.278,0.638,0.891,0.36,1.368l0,0c-0.278,0.477-0.891,0.638-1.368,0.359L164.125,387.431z"/>
	<g clip-path="url(#SVGID_26_)">
		<text transform="matrix(1 0 0 1 203.2842 344.5156)" fill="#161726" font-family="'MuseoSans-500'" font-size="14">humidity </text>
	</g>
	<g clip-path="url(#SVGID_26_)">
		<text transform="matrix(1 0 0 1 191.2842 360.5156)" fill="#161726" font-family="'MuseoSans-500'" font-size="14">temperature </text>
	</g>
	<g clip-path="url(#SVGID_26_)">
		<text transform="matrix(1 0 0 1 194.2842 377.5156)" fill="#161726" font-family="'MuseoSans-500'" font-size="14">illuminance </text>
	</g>
	
		<line clip-path="url(#SVGID_26_)" fill="none" stroke="#1D1F33" stroke-width="2" stroke-linejoin="round" stroke-miterlimit="10" stroke-dasharray="6,2" x1="164.125" y1="410.026" x2="289.391" y2="410.026"/>
	<path clip-path="url(#SVGID_26_)" fill-rule="evenodd" clip-rule="evenodd" fill="#1D1F33" d="M291.375,410.026l-7.48,4.364
		c-0.477,0.278-1.089,0.117-1.368-0.36c-0.278-0.477-0.117-1.089,0.36-1.367l4.519-2.637l-4.519-2.636
		c-0.477-0.278-0.638-0.891-0.36-1.368l0,0c0.278-0.477,0.891-0.638,1.368-0.359L291.375,410.026z"/>
	<g clip-path="url(#SVGID_26_)">
		<text transform="matrix(1 0 0 1 188.4644 428.1562)" fill="#161726" font-family="'MuseoSans-500'" font-size="14">light ON/OFF </text>
	</g>
	<g clip-path="url(#SVGID_26_)">
		<text transform="matrix(1 0 0 1 89.3618 313.6279)" fill="#161726" font-family="'MuseoSans-500'" font-size="14">Modbus RTU </text>
	</g>
</g>
<g>
	<defs>
		<rect id="SVGID_27_" x="0.019" y="133.945" width="172.362" height="122.67"/>
	</defs>
	<clipPath id="SVGID_28_">
		<use xlink:href="#SVGID_27_"  overflow="visible"/>
	</clipPath>
	<g clip-path="url(#SVGID_28_)">
		<defs>
			<rect id="SVGID_29_" x="0.019" y="133.945" width="172.362" height="122.67"/>
		</defs>
		<clipPath id="SVGID_30_">
			<use xlink:href="#SVGID_29_"  overflow="visible"/>
		</clipPath>
		<g clip-path="url(#SVGID_30_)">
			<defs>
				<rect id="SVGID_31_" x="0.019" y="133.945" width="172.362" height="122.67"/>
			</defs>
			<clipPath id="SVGID_32_">
				<use xlink:href="#SVGID_31_"  overflow="visible"/>
			</clipPath>
			<g clip-path="url(#SVGID_32_)">
				
					<image overflow="visible" width="172" height="123" xlink:href="A1229FDDDABF7602.png"  transform="matrix(1.0021 0 0 0.9973 0.0186 133.9453)">
				</image>
			</g>
		</g>
	</g>
</g>
<g>
	<defs>
		<rect id="SVGID_33_" x="256.841" y="302.267" width="203.924" height="152.943"/>
	</defs>
	<clipPath id="SVGID_34_">
		<use xlink:href="#SVGID_33_"  overflow="visible"/>
	</clipPath>
	<g clip-path="url(#SVGID_34_)">
		<defs>
			<rect id="SVGID_35_" x="256.841" y="302.267" width="203.924" height="152.943"/>
		</defs>
		<clipPath id="SVGID_36_">
			<use xlink:href="#SVGID_35_"  overflow="visible"/>
		</clipPath>
		<g clip-path="url(#SVGID_36_)">
			<defs>
				<rect id="SVGID_37_" x="256.841" y="302.267" width="203.924" height="152.943"/>
			</defs>
			<clipPath id="SVGID_38_">
				<use xlink:href="#SVGID_37_"  overflow="visible"/>
			</clipPath>
			<g clip-path="url(#SVGID_38_)">
				
					<image overflow="visible" width="204" height="153" xlink:href="A1229FDDDABF7603.png"  transform="matrix(0.9996 0 0 0.9996 256.8408 302.2666)">
				</image>
			</g>
		</g>
	</g>
</g>
<g>
	<defs>
		<rect id="SVGID_39_" x="3.117" y="116.906" width="67.701" height="60.307"/>
	</defs>
	<clipPath id="SVGID_40_">
		<use xlink:href="#SVGID_39_"  overflow="visible"/>
	</clipPath>
	<g clip-path="url(#SVGID_40_)">
		<defs>
			<rect id="SVGID_41_" x="3.117" y="116.906" width="67.701" height="60.307"/>
		</defs>
		<clipPath id="SVGID_42_">
			<use xlink:href="#SVGID_41_"  overflow="visible"/>
		</clipPath>
		<g clip-path="url(#SVGID_42_)">
			<defs>
				<rect id="SVGID_43_" x="3.117" y="116.906" width="67.701" height="60.307"/>
			</defs>
			<clipPath id="SVGID_44_">
				<use xlink:href="#SVGID_43_"  overflow="visible"/>
			</clipPath>
			<g clip-path="url(#SVGID_44_)">
				
					<image overflow="visible" width="141" height="126" xlink:href="A1229FDDDABF7604.png"  transform="matrix(0.4802 0 0 0.4786 3.1172 116.9062)">
				</image>
			</g>
		</g>
	</g>
</g>
<g>
	<defs>
		<rect id="SVGID_45_" x="19.846" y="356.352" width="127.229" height="95.422"/>
	</defs>
	<clipPath id="SVGID_46_">
		<use xlink:href="#SVGID_45_"  overflow="visible"/>
	</clipPath>
	<g clip-path="url(#SVGID_46_)">
		<defs>
			<rect id="SVGID_47_" x="19.846" y="356.352" width="127.229" height="95.422"/>
		</defs>
		<clipPath id="SVGID_48_">
			<use xlink:href="#SVGID_47_"  overflow="visible"/>
		</clipPath>
		<g clip-path="url(#SVGID_48_)">
			<defs>
				<rect id="SVGID_49_" x="19.846" y="356.352" width="127.229" height="95.422"/>
			</defs>
			<clipPath id="SVGID_50_">
				<use xlink:href="#SVGID_49_"  overflow="visible"/>
			</clipPath>
			<g transform="matrix(1 0 0 1 -1.907349e-06 -3.051758e-05)" clip-path="url(#SVGID_50_)">
				
					<image overflow="visible" width="127" height="95" xlink:href="A1229FDDDABF7605.png"  transform="matrix(1.0018 0 0 1.0044 19.8457 356.3516)">
				</image>
			</g>
		</g>
	</g>
</g>
<g>
	<defs>
		<rect id="SVGID_51_" x="34.497" y="448.502" width="52.666" height="36.603"/>
	</defs>
	<clipPath id="SVGID_52_">
		<use xlink:href="#SVGID_51_"  overflow="visible"/>
	</clipPath>
	<g clip-path="url(#SVGID_52_)">
		<defs>
			<rect id="SVGID_53_" x="34.497" y="448.502" width="52.666" height="36.603"/>
		</defs>
		<clipPath id="SVGID_54_">
			<use xlink:href="#SVGID_53_"  overflow="visible"/>
		</clipPath>
		<g clip-path="url(#SVGID_54_)">
			<defs>
				<rect id="SVGID_55_" x="34.497" y="448.502" width="52.666" height="36.603"/>
			</defs>
			<clipPath id="SVGID_56_">
				<use xlink:href="#SVGID_55_"  overflow="visible"/>
			</clipPath>
			<g transform="matrix(1 0 0 1 0 -3.051758e-05)" clip-path="url(#SVGID_56_)">
				
					<image overflow="visible" width="200" height="139" xlink:href="A1229FDDDABF7606.png"  transform="matrix(0.2633 0 0 0.2633 34.4971 448.502)">
				</image>
			</g>
		</g>
	</g>
</g>
</svg>
